<?xml version="1.0" encoding="UTF-8" standalone="no"?>
<svg width="529.167mm" height="651.669mm"
 xmlns="http://www.w3.org/2000/svg" xmlns:xlink="http://www.w3.org/1999/xlink"  version="1.2" baseProfile="tiny">
<desc>Created by EvoPdf</desc>
<defs>
</defs>
<g fill="none" stroke="black" stroke-width="1" fill-rule="evenodd" stroke-linecap="square" stroke-linejoin="bevel" >

<g fill="#000000" fill-opacity="1" stroke="#000000" stroke-opacity="1" stroke-width="1" stroke-linecap="square" stroke-linejoin="miter" stroke-miterlimit="2" transform="matrix(1,0,0,1,0,0)"
>
</g>

<g fill="#000000" fill-opacity="1" stroke="#000000" stroke-opacity="1" stroke-width="1" stroke-linecap="square" stroke-linejoin="miter" stroke-miterlimit="2" transform="matrix(1,0,0,1,0,0)"
>
</g>

<g fill="#000000" fill-opacity="1" stroke="#000000" stroke-opacity="1" stroke-width="1" stroke-linecap="square" stroke-linejoin="miter" stroke-miterlimit="2" transform="matrix(1,0,0,1,0,0)"
>
</g>

<g fill="#000000" fill-opacity="1" stroke="#000000" stroke-opacity="1" stroke-width="1" stroke-linecap="square" stroke-linejoin="miter" stroke-miterlimit="2" transform="matrix(1,0,0,1,0,0)"
>
</g>

<g fill="#000000" fill-opacity="1" stroke="#000000" stroke-opacity="1" stroke-width="1" stroke-linecap="square" stroke-linejoin="miter" stroke-miterlimit="2" transform="matrix(0.992,0,0,0.992,8,17.852)"
>
</g>

<g fill="#ffffff" fill-opacity="1" stroke="none" transform="matrix(0.992,0,0,0.992,8,17.852)"
>
<path vector-effect="none" fill-rule="nonzero" d="M1166,197.2 L1000,26.1 L834,197.2 L1000,358.2 L1166,197.2"/>
</g>

<g fill="#000000" fill-opacity="1" stroke="#000000" stroke-opacity="1" stroke-width="1" stroke-linecap="square" stroke-linejoin="miter" stroke-miterlimit="2" transform="matrix(0.992,0,0,0.992,8,17.852)"
>
</g>

<g fill="#000000" fill-opacity="1" stroke="#000000" stroke-opacity="1" stroke-width="1" stroke-linecap="square" stroke-linejoin="miter" stroke-miterlimit="2" transform="matrix(0.992,0,0,0.992,8,17.852)"
>
</g>

<g fill="#ffffff" fill-opacity="1" stroke="none" transform="matrix(0.992,0,0,0.992,8,17.852)"
>
<path vector-effect="none" fill-rule="nonzero" d="M902.7,325.1 L902.7,1656.1 C902.7,1665.5 902.7,1674.6 902.8,1683.4 L902.7,1683.4 C902.7,1826 787.5,1884 787.5,1884 L860.5,1971.7 C1064.5,1909.4 1097.4,1782.7 1097.4,1782.7 L1097.4,1656 L1097.4,1640.6 L1097.4,325.1 L1000.1,419.8 L902.7,325.1"/>
</g>

<g fill="#ffffff" fill-opacity="1" stroke="#000000" stroke-opacity="1" stroke-width="1" stroke-linecap="square" stroke-linejoin="miter" stroke-miterlimit="2" transform="matrix(0.992,0,0,0.992,8,17.852)"
>
</g>

<g fill="#ffffff" fill-opacity="1" stroke="#000000" stroke-opacity="1" stroke-width="1" stroke-linecap="square" stroke-linejoin="miter" stroke-miterlimit="2" transform="matrix(1,0,0,1,0,0)"
>
</g>

<g fill="#ffffff" fill-opacity="1" stroke="#000000" stroke-opacity="1" stroke-width="1" stroke-linecap="square" stroke-linejoin="miter" stroke-miterlimit="2" transform="matrix(1,0,0,1,0,0)"
>
</g>

<g fill="#ffffff" fill-opacity="1" stroke="#000000" stroke-opacity="1" stroke-width="1" stroke-linecap="square" stroke-linejoin="miter" stroke-miterlimit="2" transform="matrix(1,0,0,1,0,0)"
>
</g>

<g fill="#000000" fill-opacity="1" stroke="#000000" stroke-opacity="1" stroke-width="1" stroke-linecap="square" stroke-linejoin="miter" stroke-miterlimit="2" transform="matrix(0.992,0,0,0.992,8,17.852)"
>
</g>

<g fill="#000000" fill-opacity="1" stroke="#000000" stroke-opacity="1" stroke-width="1" stroke-linecap="square" stroke-linejoin="miter" stroke-miterlimit="2" transform="matrix(0.992,0,0,0.992,8,17.852)"
>
</g>

<g fill="#000000" fill-opacity="1" stroke="#000000" stroke-opacity="1" stroke-width="1" stroke-linecap="square" stroke-linejoin="miter" stroke-miterlimit="2" transform="matrix(0.992,0,0,0.992,8,17.852)"
>
</g>

<g fill="#ffffff" fill-opacity="1" stroke="none" transform="matrix(0.992,0,0,0.992,8,17.852)"
>
<path vector-effect="none" fill-rule="nonzero" d="M1981.8,988.5 C1980.6,978.2 1971.6,973.3 1963.3,968.9 C1952,962.9 1941.2,955.4 1934.3,944.4 C1928.4,935.1 1924.7,926.1 1916.3,918.6 C1906.8,910.1 1897.3,901.6 1887.7,893.2 C1868.5,876.4 1849.2,859.7 1829.8,843.1 C1814,829.7 1798.1,816.3 1782.1,803.1 C1768.6,791.9 1753.3,781.7 1745,765.9 C1736.5,749.9 1738.5,730.3 1727.1,715.2 C1717.5,702.4 1701.5,692.9 1685.8,689.7 C1670.1,686.5 1657.9,683.5 1645.1,673.1 C1636.2,665.9 1627.4,658.5 1618.8,650.9 C1601.9,636.1 1585.4,620.8 1568.9,605.4 C1609.6,595.2 1641.6,570.5 1640.5,525.4 C1640.1,509.1 1634.5,493.1 1624.3,480.4 C1614.8,468.5 1599.6,454.7 1583.6,454.1 C1595.5,471.9 1594.3,496.9 1583.6,515 C1571.6,535.2 1545.9,547 1522.5,544.6 C1544.2,508.3 1542.7,459.4 1518.7,424.5 C1494.7,389.6 1448,376.2 1405.7,376.2 C1405.7,376.2 1403.2,334 1353.1,307.5 C1309.9,284.6 1266.1,300 1266.1,300 L1196.6,228.9 L1141.7,281.9 L1141.7,417.3 C1230.8,312.4 1320,360 1320,360 C1320,360 1211.6,355.3 1141.7,473.1 L1141.7,579 C1176.7,536.6 1242.7,483 1314.2,483 C1452.7,483 1483.1,588.7 1483.1,588.7 C1458.4,565.8 1440,548.7 1410.6,536.6 C1356.4,514.2 1315.8,510.3 1266.2,533.4 C1219.4,555.2 1186.2,586.5 1141.7,646.3 L1141.7,755.4 C1171.8,720 1215.6,685.3 1255.1,673 C1321.6,652.4 1393.6,668.1 1439.2,718.9 C1412.6,708.6 1398.8,704.7 1375.7,700.9 C1290.5,686.8 1221.6,715.9 1157.5,806.1 C1152.2,813.6 1145,825 1141.7,833.6 L1141.7,1682.9 C1141.7,1682.9 1138.8,1745 1194.7,1745 C1180.3,1728.6 1175.9,1704.2 1177.6,1682.8 C1179.4,1660 1190.8,1638.2 1205.1,1620.1 C1214.5,1608.2 1225.4,1597.4 1238.5,1589.9 C1251.6,1582.4 1267.1,1578.4 1282,1580.6 C1286.1,1581.2 1290.1,1582.3 1293.9,1583.9 C1311.6,1591.6 1322.1,1611.8 1320.9,1631.1 C1319.7,1650.4 1309.3,1668.3 1293.9,1679.9 C1326.8,1672.5 1357.3,1653.4 1376.3,1625.6 C1395.3,1597.8 1402,1561.3 1391.7,1529.3 C1386.7,1513.7 1365.1,1478.6 1382.3,1464.8 C1389,1459.4 1398.2,1457.9 1406.6,1459.5 C1415,1461.2 1422.6,1465.7 1429.1,1471.4 C1451.7,1491.2 1461.3,1524.2 1460.8,1554.3 C1480.3,1531.6 1488.8,1500 1483.3,1470.6 C1479.9,1452.1 1471.3,1435.2 1461.9,1419.1 C1453.2,1404.3 1446.5,1388.3 1443.6,1371.1 C1441.8,1360.3 1441.9,1349.3 1442.3,1338.4 C1442.8,1326.2 1451.3,1262.7 1476.6,1276.9 C1484.4,1281.3 1492,1286.3 1499.5,1291.3 C1514.1,1301.2 1528.1,1311.9 1541.7,1323.1 C1536.2,1353.5 1514.7,1376.4 1486.3,1390.4 C1528.1,1402.7 1576.4,1390.4 1608.5,1360.9 C1611.8,1381.4 1611.2,1394.2 1602.4,1412.6 C1594,1429.9 1580.6,1442.8 1561.8,1454.8 C1617.1,1455.9 1664,1431.3 1700.9,1396.1 C1731.4,1366.9 1753.8,1324 1760.5,1282.3 C1764.1,1279.1 1766.6,1274.7 1767.2,1269.9 C1769,1255.3 1759.9,1244.8 1747.8,1238.5 C1747.2,1238.2 1741.3,1236.1 1741.2,1235.9 C1739.4,1218.1 1735.7,1201.9 1724.2,1187.6 C1713.4,1174.1 1698.7,1165 1681.9,1161.3 C1709.8,1181.5 1705.7,1221.7 1677.7,1239.5 C1662,1249.5 1641.7,1250.7 1624.5,1244.2 C1614.9,1240.6 1602,1233.6 1601.3,1222 C1600.3,1205.1 1614,1206.6 1626.1,1210.5 C1633.4,1212.8 1641.4,1213.2 1648.6,1210.7 C1655.8,1208.2 1662.1,1202.6 1664.6,1195.4 C1666.4,1190.1 1666.1,1184.3 1664.7,1178.9 C1659.5,1159.6 1638,1146.2 1618.3,1150.1 C1606.5,1152.4 1596.3,1159.9 1585.8,1165.5 C1582.7,1167.1 1579.2,1167.8 1575.7,1167.3 C1557.5,1164.3 1575.1,1142.8 1579.9,1136.7 C1591.5,1122.1 1603.9,1108.2 1617.2,1095.1 C1624.8,1087.6 1633.4,1079.9 1644,1078.3 C1659,1076 1674.3,1085.6 1686.7,1092.7 C1712.2,1107.3 1736.3,1123.6 1761.8,1137.8 C1767.9,1165 1765,1194.3 1753,1219.5 C1781.7,1211.1 1806.1,1190.1 1819.9,1163.7 C1836.5,1168.8 1853.7,1171.1 1871.4,1167.4 C1894.9,1162.4 1917.6,1148.2 1928.6,1126.2 C1939.5,1104.3 1937.7,1077.1 1928.7,1054.8 C1921.8,1037.6 1910,1022.7 1896,1010.6 C1887.1,1003 1877.2,996.4 1869.4,987.6 C1857.7,974.3 1849.9,942.2 1877.8,954.4 C1894.3,961.6 1905.8,977.9 1917.4,991 C1933.4,1009 1945.3,1030.5 1954.3,1052.6 C1962.9,1045.6 1969.3,1034.4 1973.7,1024.4 C1978.6,1014.5 1983.1,1000 1981.8,988.5 M1178.2,1605.7 L1178.2,1534.8 C1224.9,1445.1 1301.7,1439.2 1301.7,1439.2 C1208.8,1495.1 1178.2,1605.7 1178.2,1605.7 M1178.2,1466.1 L1178.2,1388.3 C1252.8,1289.5 1327.4,1300.8 1327.4,1300.8 C1218,1346.9 1178.2,1466.1 1178.2,1466.1 M1674.3,801.4 L1619.4,798.1 C1581.5,725.8 1520.1,714.3 1520.1,714.3 C1603.1,698.4 1646.1,763.4 1674.3,801.4 M1622.9,926 C1581.2,871.6 1541.8,833.1 1541.8,833.1 C1624.8,842.9 1676.4,843.9 1676.4,843.9 C1667.8,906.7 1622.9,926 1622.9,926 "/>
</g>

<g fill="#ffffff" fill-opacity="1" stroke="#000000" stroke-opacity="1" stroke-width="1" stroke-linecap="square" stroke-linejoin="miter" stroke-miterlimit="2" transform="matrix(0.992,0,0,0.992,8,17.852)"
>
</g>

<g fill="#ffffff" fill-opacity="1" stroke="#000000" stroke-opacity="1" stroke-width="1" stroke-linecap="square" stroke-linejoin="miter" stroke-miterlimit="2" transform="matrix(1,0,0,1,0,0)"
>
</g>

<g fill="#ffffff" fill-opacity="1" stroke="#000000" stroke-opacity="1" stroke-width="1" stroke-linecap="square" stroke-linejoin="miter" stroke-miterlimit="2" transform="matrix(1,0,0,1,0,0)"
>
</g>

<g fill="#ffffff" fill-opacity="1" stroke="#000000" stroke-opacity="1" stroke-width="1" stroke-linecap="square" stroke-linejoin="miter" stroke-miterlimit="2" transform="matrix(1,0,0,1,0,0)"
>
</g>

<g fill="#000000" fill-opacity="1" stroke="#000000" stroke-opacity="1" stroke-width="1" stroke-linecap="square" stroke-linejoin="miter" stroke-miterlimit="2" transform="matrix(0.992,0,0,0.992,8,17.852)"
>
</g>

<g fill="#000000" fill-opacity="1" stroke="#000000" stroke-opacity="1" stroke-width="1" stroke-linecap="square" stroke-linejoin="miter" stroke-miterlimit="2" transform="matrix(0.992,0,0,0.992,8,17.852)"
>
</g>

<g fill="#000000" fill-opacity="1" stroke="#000000" stroke-opacity="1" stroke-width="1" stroke-linecap="square" stroke-linejoin="miter" stroke-miterlimit="2" transform="matrix(0.992,0,0,0.992,8,17.852)"
>
</g>

<g fill="#ffffff" fill-opacity="1" stroke="none" transform="matrix(0.992,0,0,0.992,8,17.852)"
>
<path vector-effect="none" fill-rule="nonzero" d="M26,1024.8 C30.4,1034.8 36.8,1046 45.4,1053 C54.4,1030.8 66.3,1009.3 82.3,991.4 C93.9,978.4 105.4,962 121.9,954.8 C149.8,942.7 142,974.7 130.3,988 C122.6,996.8 112.6,1003.3 103.7,1011 C89.6,1023 77.9,1038 71,1055.2 C62.1,1077.4 60.2,1104.7 71.1,1126.6 C82.1,1148.6 104.7,1162.8 128.3,1167.8 C146,1171.5 163.1,1169.2 179.8,1164.1 C193.7,1190.5 218.1,1211.4 246.7,1219.9 C234.7,1194.7 231.8,1165.4 237.9,1138.2 C263.4,1124 287.6,1107.7 313,1093.1 C325.4,1086 340.7,1076.4 355.7,1078.7 C366.3,1080.3 374.9,1087.9 382.5,1095.5 C395.8,1108.6 408.2,1122.5 419.8,1137.1 C424.6,1143.2 442.2,1164.7 424,1167.7 C420.5,1168.3 417,1167.6 413.9,1165.9 C403.4,1160.3 393.2,1152.8 381.4,1150.5 C361.8,1146.6 340.3,1160 335,1179.3 C333.5,1184.7 333.3,1190.5 335.1,1195.8 C337.6,1203 343.9,1208.6 351.1,1211.1 C358.3,1213.6 366.3,1213.2 373.6,1210.9 C385.7,1207 399.4,1205.5 398.4,1222.4 C397.7,1234 384.8,1241 375.2,1244.6 C358,1251.1 337.7,1249.8 322,1239.9 C294,1222.2 290,1181.9 317.8,1161.7 C300.9,1165.4 286.2,1174.5 275.5,1188 C264,1202.4 260.3,1218.5 258.5,1236.3 C258.5,1236.5 252.6,1238.6 251.9,1238.9 C239.8,1245.3 230.7,1255.8 232.5,1270.3 C233.1,1275.1 235.6,1279.4 239.2,1282.7 C245.9,1324.4 268.3,1367.3 298.8,1396.5 C335.6,1431.7 382.5,1456.3 437.9,1455.2 C419.1,1443.2 405.7,1430.3 397.4,1413 C388.5,1394.6 388,1381.8 391.3,1361.3 C423.4,1390.8 471.6,1403.1 513.5,1390.8 C485.1,1376.7 463.6,1353.8 458.1,1323.5 C471.7,1312.3 485.7,1301.5 500.3,1291.7 C507.8,1286.7 515.3,1281.7 523.2,1277.3 C548.5,1263.1 557,1326.6 557.5,1338.8 C557.9,1349.7 558,1360.8 556.2,1371.5 C553.4,1388.6 546.6,1404.7 537.9,1419.5 C528.5,1435.6 520,1452.5 516.5,1471 C511,1500.4 519.6,1532 539,1554.7 C538.5,1524.6 548.1,1491.7 570.7,1471.8 C577.1,1466.2 584.7,1461.6 593.2,1459.9 C601.6,1458.2 610.9,1459.8 617.5,1465.2 C634.6,1479 613.1,1514.1 608.1,1529.7 C597.8,1561.8 604.5,1598.2 623.5,1626 C642.5,1653.8 673,1672.9 705.9,1680.3 C690.5,1668.7 680.1,1650.8 678.9,1631.5 C677.7,1612.2 688.2,1592 705.9,1584.3 C709.7,1582.7 713.7,1581.6 717.8,1581 C732.8,1578.8 748.2,1582.8 761.3,1590.3 C774.4,1597.8 785.4,1608.7 794.7,1620.5 C809,1638.6 820.4,1660.4 822.2,1683.2 C823.9,1704.6 819.5,1729 805.1,1745.4 C860.9,1745.4 858.1,1683.3 858.1,1683.3 L858.1,833.8 C854.8,825.2 847.6,813.8 842.3,806.3 C778.2,716.1 709.3,686.9 624.1,701.1 C601,704.9 587.2,708.8 560.6,719.1 C606.2,668.4 678.3,652.6 744.7,673.2 C784.3,685.5 828,720.2 858.1,755.6 L858.1,646.5 C813.5,586.7 780.3,555.4 733.6,533.6 C684,510.5 643.4,514.5 589.2,536.8 C559.8,548.9 541.4,566 516.7,588.9 C516.7,588.9 547.1,483.2 685.6,483.2 C757.1,483.2 823.1,536.9 858.1,579.2 L858.1,473.3 C788.5,355.5 680,360.2 680,360.2 C680,360.2 769.1,312.6 858.3,417.5 L858.3,282.1 L803.4,229.1 L733.9,300.2 C733.9,300.2 690.2,284.9 646.9,307.7 C596.8,334.2 594.3,376.4 594.3,376.4 C552,376.4 505.3,389.8 481.3,424.7 C457.3,459.6 455.8,508.5 477.5,544.8 C454.1,547.2 428.4,535.4 416.4,515.2 C405.6,497.1 404.5,472.2 416.4,454.3 C400.4,454.9 385.1,468.7 375.7,480.6 C365.5,493.4 359.9,509.3 359.5,525.6 C358.4,570.7 390.4,595.4 431.1,605.6 C414.7,621 398.2,636.3 381.2,651.1 C372.6,658.7 363.8,666.1 354.9,673.3 C342.1,683.7 329.8,686.7 314.2,689.9 C298.6,693.1 282.6,702.5 272.9,715.4 C261.5,730.5 263.5,750.1 255,766.1 C246.6,781.9 231.3,792.2 217.9,803.3 C201.9,816.5 186,829.9 170.2,843.3 C150.8,859.8 131.5,876.5 112.3,893.4 C102.7,901.8 93.2,910.3 83.7,918.8 C75.4,926.3 71.6,935.3 65.7,944.6 C58.8,955.5 47.9,963.1 36.7,969.1 C28.5,973.5 19.4,978.3 18.2,988.7 C16.9,1000 21.4,1014.5 26,1024.8 M698.3,1439.3 C698.3,1439.3 775.1,1445.2 821.8,1534.9 L821.8,1605.8 C821.8,1605.7 791.2,1495.1 698.3,1439.3 M672.5,1300.8 C672.5,1300.8 747.1,1289.5 821.7,1388.3 L821.7,1466.1 C821.8,1466.1 782,1346.9 672.5,1300.8 M479.9,714.2 C479.9,714.2 418.6,725.7 380.6,798 L325.7,801.3 C353.9,763.4 396.9,698.4 479.9,714.2 M323.5,843.8 C323.5,843.8 375.1,842.8 458.1,833 C458.1,833 418.7,871.6 377,925.9 C377.1,926 332.2,906.7 323.5,843.8 "/>
</g>

<g fill="#ffffff" fill-opacity="1" stroke="#000000" stroke-opacity="1" stroke-width="1" stroke-linecap="square" stroke-linejoin="miter" stroke-miterlimit="2" transform="matrix(0.992,0,0,0.992,8,17.852)"
>
</g>

<g fill="#ffffff" fill-opacity="1" stroke="#000000" stroke-opacity="1" stroke-width="1" stroke-linecap="square" stroke-linejoin="miter" stroke-miterlimit="2" transform="matrix(1,0,0,1,0,0)"
>
</g>

<g fill="#ffffff" fill-opacity="1" stroke="#000000" stroke-opacity="1" stroke-width="1" stroke-linecap="square" stroke-linejoin="miter" stroke-miterlimit="2" transform="matrix(1,0,0,1,0,0)"
>
</g>

<g fill="#ffffff" fill-opacity="1" stroke="#000000" stroke-opacity="1" stroke-width="1" stroke-linecap="square" stroke-linejoin="miter" stroke-miterlimit="2" transform="matrix(1,0,0,1,0,0)"
>
</g>

<g fill="#000000" fill-opacity="1" stroke="#000000" stroke-opacity="1" stroke-width="1" stroke-linecap="square" stroke-linejoin="miter" stroke-miterlimit="2" transform="matrix(0.992,0,0,0.992,8,17.852)"
>
</g>

<g fill="#000000" fill-opacity="1" stroke="#000000" stroke-opacity="1" stroke-width="1" stroke-linecap="square" stroke-linejoin="miter" stroke-miterlimit="2" transform="matrix(0.992,0,0,0.992,8,17.852)"
>
</g>

<g fill="#000000" fill-opacity="1" stroke="#000000" stroke-opacity="1" stroke-width="1" stroke-linecap="square" stroke-linejoin="miter" stroke-miterlimit="2" transform="matrix(0.992,0,0,0.992,8,17.852)"
>
</g>

<g fill="#000000" fill-opacity="1" stroke="#000000" stroke-opacity="1" stroke-width="1" stroke-linecap="square" stroke-linejoin="miter" stroke-miterlimit="2" transform="matrix(0.992,0,0,0.992,8,17.852)"
>
</g>

<g fill="#ffffff" fill-opacity="1" stroke="none" transform="matrix(0.992,0,0,0.992,8,17.852)"
>
<path vector-effect="none" fill-rule="nonzero" d="M489.9,2181.8 L524.1,2181.8 L524.1,2365.3 C524.1,2415.2 503.3,2440.1 461.8,2440.1 C447.4,2440.1 433.2,2436.4 419.2,2428.9 L436.1,2401 C447.1,2404.8 456.1,2406.7 463,2406.7 C480.9,2406.7 489.9,2394.7 489.9,2370.6 L489.9,2181.8"/>
</g>

<g fill="#ffffff" fill-opacity="1" stroke="#000000" stroke-opacity="1" stroke-width="1" stroke-linecap="square" stroke-linejoin="miter" stroke-miterlimit="2" transform="matrix(0.992,0,0,0.992,8,17.852)"
>
</g>

<g fill="#ffffff" fill-opacity="1" stroke="#000000" stroke-opacity="1" stroke-width="1" stroke-linecap="square" stroke-linejoin="miter" stroke-miterlimit="2" transform="matrix(1,0,0,1,0,0)"
>
</g>

<g fill="#ffffff" fill-opacity="1" stroke="#000000" stroke-opacity="1" stroke-width="1" stroke-linecap="square" stroke-linejoin="miter" stroke-miterlimit="2" transform="matrix(1,0,0,1,0,0)"
>
</g>

<g fill="#ffffff" fill-opacity="1" stroke="#000000" stroke-opacity="1" stroke-width="1" stroke-linecap="square" stroke-linejoin="miter" stroke-miterlimit="2" transform="matrix(1,0,0,1,0,0)"
>
</g>

<g fill="#000000" fill-opacity="1" stroke="#000000" stroke-opacity="1" stroke-width="1" stroke-linecap="square" stroke-linejoin="miter" stroke-miterlimit="2" transform="matrix(0.992,0,0,0.992,8,17.852)"
>
</g>

<g fill="#000000" fill-opacity="1" stroke="#000000" stroke-opacity="1" stroke-width="1" stroke-linecap="square" stroke-linejoin="miter" stroke-miterlimit="2" transform="matrix(0.992,0,0,0.992,8,17.852)"
>
</g>

<g fill="#000000" fill-opacity="1" stroke="#000000" stroke-opacity="1" stroke-width="1" stroke-linecap="square" stroke-linejoin="miter" stroke-miterlimit="2" transform="matrix(0.992,0,0,0.992,8,17.852)"
>
</g>

<g fill="#ffffff" fill-opacity="1" stroke="none" transform="matrix(0.992,0,0,0.992,8,17.852)"
>
<path vector-effect="none" fill-rule="nonzero" d="M576,2305 C576,2268.9 589.6,2237.9 616.9,2212.2 C644.1,2186.4 676.9,2173.5 715.1,2173.5 C752.4,2173.5 784.6,2186.5 811.6,2212.5 C838.6,2238.5 852.1,2269.3 852.1,2305.1 C852.1,2342.9 838.8,2374.9 812.1,2401 C785.4,2427.1 752.7,2440.2 714,2440.2 C675.8,2440.2 643.2,2427.1 616.4,2400.7 C589.4,2374.3 576,2342.5 576,2305 M815.6,2306.6 C815.6,2279 805.6,2255.7 785.7,2236.8 C765.8,2217.9 741.3,2208.4 712.2,2208.4 C684.6,2208.4 660.9,2218 641.2,2237.2 C621.5,2256.4 611.6,2279.5 611.6,2306.5 C611.6,2333.8 621.7,2357 641.9,2375.9 C662.1,2394.8 686.9,2404.3 716.3,2404.3 C743.3,2404.3 766.6,2394.7 786.1,2375.4 C805.8,2356.1 815.6,2333.2 815.6,2306.6 "/>
</g>

<g fill="#ffffff" fill-opacity="1" stroke="#000000" stroke-opacity="1" stroke-width="1" stroke-linecap="square" stroke-linejoin="miter" stroke-miterlimit="2" transform="matrix(0.992,0,0,0.992,8,17.852)"
>
</g>

<g fill="#ffffff" fill-opacity="1" stroke="#000000" stroke-opacity="1" stroke-width="1" stroke-linecap="square" stroke-linejoin="miter" stroke-miterlimit="2" transform="matrix(1,0,0,1,0,0)"
>
</g>

<g fill="#ffffff" fill-opacity="1" stroke="#000000" stroke-opacity="1" stroke-width="1" stroke-linecap="square" stroke-linejoin="miter" stroke-miterlimit="2" transform="matrix(1,0,0,1,0,0)"
>
</g>

<g fill="#ffffff" fill-opacity="1" stroke="#000000" stroke-opacity="1" stroke-width="1" stroke-linecap="square" stroke-linejoin="miter" stroke-miterlimit="2" transform="matrix(1,0,0,1,0,0)"
>
</g>

<g fill="#000000" fill-opacity="1" stroke="#000000" stroke-opacity="1" stroke-width="1" stroke-linecap="square" stroke-linejoin="miter" stroke-miterlimit="2" transform="matrix(0.992,0,0,0.992,8,17.852)"
>
</g>

<g fill="#000000" fill-opacity="1" stroke="#000000" stroke-opacity="1" stroke-width="1" stroke-linecap="square" stroke-linejoin="miter" stroke-miterlimit="2" transform="matrix(0.992,0,0,0.992,8,17.852)"
>
</g>

<g fill="#000000" fill-opacity="1" stroke="#000000" stroke-opacity="1" stroke-width="1" stroke-linecap="square" stroke-linejoin="miter" stroke-miterlimit="2" transform="matrix(0.992,0,0,0.992,8,17.852)"
>
</g>

<g fill="#ffffff" fill-opacity="1" stroke="none" transform="matrix(0.992,0,0,0.992,8,17.852)"
>
<path vector-effect="none" fill-rule="nonzero" d="M867.7,2181.8 L903.8,2181.8 L982.4,2359 L1061.5,2181.8 L1097.9,2181.8 L981.9,2440.1 L867.7,2181.8"/>
</g>

<g fill="#ffffff" fill-opacity="1" stroke="#000000" stroke-opacity="1" stroke-width="1" stroke-linecap="square" stroke-linejoin="miter" stroke-miterlimit="2" transform="matrix(0.992,0,0,0.992,8,17.852)"
>
</g>

<g fill="#ffffff" fill-opacity="1" stroke="#000000" stroke-opacity="1" stroke-width="1" stroke-linecap="square" stroke-linejoin="miter" stroke-miterlimit="2" transform="matrix(1,0,0,1,0,0)"
>
</g>

<g fill="#ffffff" fill-opacity="1" stroke="#000000" stroke-opacity="1" stroke-width="1" stroke-linecap="square" stroke-linejoin="miter" stroke-miterlimit="2" transform="matrix(1,0,0,1,0,0)"
>
</g>

<g fill="#ffffff" fill-opacity="1" stroke="#000000" stroke-opacity="1" stroke-width="1" stroke-linecap="square" stroke-linejoin="miter" stroke-miterlimit="2" transform="matrix(1,0,0,1,0,0)"
>
</g>

<g fill="#000000" fill-opacity="1" stroke="#000000" stroke-opacity="1" stroke-width="1" stroke-linecap="square" stroke-linejoin="miter" stroke-miterlimit="2" transform="matrix(0.992,0,0,0.992,8,17.852)"
>
</g>

<g fill="#000000" fill-opacity="1" stroke="#000000" stroke-opacity="1" stroke-width="1" stroke-linecap="square" stroke-linejoin="miter" stroke-miterlimit="2" transform="matrix(0.992,0,0,0.992,8,17.852)"
>
</g>

<g fill="#000000" fill-opacity="1" stroke="#000000" stroke-opacity="1" stroke-width="1" stroke-linecap="square" stroke-linejoin="miter" stroke-miterlimit="2" transform="matrix(0.992,0,0,0.992,8,17.852)"
>
</g>

<g fill="#ffffff" fill-opacity="1" stroke="none" transform="matrix(0.992,0,0,0.992,8,17.852)"
>
<path vector-effect="none" fill-rule="nonzero" d="M1196.8,2171.7 L1079.6,2431.6 L1115.1,2431.6 L1143.8,2367.6 L1174,2367.6 L1197.2,2418.2 L1220.4,2367.6 L1250,2367.6 L1279,2431.6 L1314.8,2431.6 L1196.8,2171.7 M1228.7,2339.1 L1226.8,2343.3 L1226.9,2343.3 L1215.8,2367.5 L1210.7,2378.5 L1197.3,2407.9 L1188.2,2388.1 L1178.8,2367.5 L1167.7,2343.3 L1165.8,2339.1 L1156.7,2339.1 L1161.2,2329 L1196.7,2249.8 L1233,2329.8 L1237.2,2339.1 L1228.7,2339.1"/>
</g>

<g fill="#ffffff" fill-opacity="1" stroke="#000000" stroke-opacity="1" stroke-width="1" stroke-linecap="square" stroke-linejoin="miter" stroke-miterlimit="2" transform="matrix(0.992,0,0,0.992,8,17.852)"
>
</g>

<g fill="#ffffff" fill-opacity="1" stroke="#000000" stroke-opacity="1" stroke-width="1" stroke-linecap="square" stroke-linejoin="miter" stroke-miterlimit="2" transform="matrix(1,0,0,1,0,0)"
>
</g>

<g fill="#ffffff" fill-opacity="1" stroke="#000000" stroke-opacity="1" stroke-width="1" stroke-linecap="square" stroke-linejoin="miter" stroke-miterlimit="2" transform="matrix(1,0,0,1,0,0)"
>
</g>

<g fill="#ffffff" fill-opacity="1" stroke="#000000" stroke-opacity="1" stroke-width="1" stroke-linecap="square" stroke-linejoin="miter" stroke-miterlimit="2" transform="matrix(1,0,0,1,0,0)"
>
</g>

<g fill="#000000" fill-opacity="1" stroke="#000000" stroke-opacity="1" stroke-width="1" stroke-linecap="square" stroke-linejoin="miter" stroke-miterlimit="2" transform="matrix(0.992,0,0,0.992,8,17.852)"
>
</g>

<g fill="#000000" fill-opacity="1" stroke="#000000" stroke-opacity="1" stroke-width="1" stroke-linecap="square" stroke-linejoin="miter" stroke-miterlimit="2" transform="matrix(0.992,0,0,0.992,8,17.852)"
>
</g>

<g fill="#000000" fill-opacity="1" stroke="#000000" stroke-opacity="1" stroke-width="1" stroke-linecap="square" stroke-linejoin="miter" stroke-miterlimit="2" transform="matrix(0.992,0,0,0.992,8,17.852)"
>
</g>

<g fill="#ffffff" fill-opacity="1" stroke="none" transform="matrix(0.992,0,0,0.992,8,17.852)"
>
<path vector-effect="none" fill-rule="nonzero" d="M1351.7,2181.4 L1405.9,2181.4 C1432.9,2181.4 1454.8,2188.1 1471.8,2201.5 C1488.8,2214.9 1497.2,2232.1 1497.2,2253.1 C1497.2,2269.9 1491.7,2284.7 1480.7,2297.5 C1469.7,2310.3 1452.6,2319.4 1429.4,2324.6 L1502.1,2431.7 L1463,2431.7 L1393.6,2328.8 L1385.9,2328.8 L1385.9,2431.7 L1351.7,2431.7 L1351.7,2181.4 M1385.9,2211.6 L1385.9,2298.8 C1436.3,2299.8 1461.5,2285.2 1461.5,2255 C1461.5,2244.4 1458.6,2235.7 1452.7,2229 C1446.8,2222.3 1438.9,2217.7 1429.1,2215.2 C1419.3,2212.8 1404.9,2211.6 1385.9,2211.6 "/>
</g>

<g fill="#ffffff" fill-opacity="1" stroke="#000000" stroke-opacity="1" stroke-width="1" stroke-linecap="square" stroke-linejoin="miter" stroke-miterlimit="2" transform="matrix(0.992,0,0,0.992,8,17.852)"
>
</g>

<g fill="#ffffff" fill-opacity="1" stroke="#000000" stroke-opacity="1" stroke-width="1" stroke-linecap="square" stroke-linejoin="miter" stroke-miterlimit="2" transform="matrix(1,0,0,1,0,0)"
>
</g>

<g fill="#ffffff" fill-opacity="1" stroke="#000000" stroke-opacity="1" stroke-width="1" stroke-linecap="square" stroke-linejoin="miter" stroke-miterlimit="2" transform="matrix(1,0,0,1,0,0)"
>
</g>

<g fill="#ffffff" fill-opacity="1" stroke="#000000" stroke-opacity="1" stroke-width="1" stroke-linecap="square" stroke-linejoin="miter" stroke-miterlimit="2" transform="matrix(1,0,0,1,0,0)"
>
</g>

<g fill="#000000" fill-opacity="1" stroke="#000000" stroke-opacity="1" stroke-width="1" stroke-linecap="square" stroke-linejoin="miter" stroke-miterlimit="2" transform="matrix(0.992,0,0,0.992,8,17.852)"
>
</g>

<g fill="#000000" fill-opacity="1" stroke="#000000" stroke-opacity="1" stroke-width="1" stroke-linecap="square" stroke-linejoin="miter" stroke-miterlimit="2" transform="matrix(0.992,0,0,0.992,8,17.852)"
>
</g>

<g fill="#000000" fill-opacity="1" stroke="#000000" stroke-opacity="1" stroke-width="1" stroke-linecap="square" stroke-linejoin="miter" stroke-miterlimit="2" transform="matrix(0.992,0,0,0.992,8,17.852)"
>
</g>

<g fill="#ffffff" fill-opacity="1" stroke="none" transform="matrix(0.992,0,0,0.992,8,17.852)"
>
<path vector-effect="none" fill-rule="evenodd" d="M1547,2181.4 L1580.8,2181.4 L1580.8,2431.7 L1547,2431.7 L1547,2181.4"/>
</g>

<g fill="#ffffff" fill-opacity="1" stroke="#000000" stroke-opacity="1" stroke-width="1" stroke-linecap="square" stroke-linejoin="miter" stroke-miterlimit="2" transform="matrix(0.992,0,0,0.992,8,17.852)"
>
</g>

<g fill="#ffffff" fill-opacity="1" stroke="#000000" stroke-opacity="1" stroke-width="1" stroke-linecap="square" stroke-linejoin="miter" stroke-miterlimit="2" transform="matrix(1,0,0,1,0,0)"
>
</g>

<g fill="#ffffff" fill-opacity="1" stroke="#000000" stroke-opacity="1" stroke-width="1" stroke-linecap="square" stroke-linejoin="miter" stroke-miterlimit="2" transform="matrix(1,0,0,1,0,0)"
>
</g>

<g fill="#ffffff" fill-opacity="1" stroke="#000000" stroke-opacity="1" stroke-width="1" stroke-linecap="square" stroke-linejoin="miter" stroke-miterlimit="2" transform="matrix(1,0,0,1,0,0)"
>
</g>

<g fill="#000000" fill-opacity="1" stroke="#000000" stroke-opacity="1" stroke-width="1" stroke-linecap="square" stroke-linejoin="miter" stroke-miterlimit="2" transform="matrix(0.992,0,0,0.992,8,17.852)"
>
</g>

<g fill="#000000" fill-opacity="1" stroke="#000000" stroke-opacity="1" stroke-width="1" stroke-linecap="square" stroke-linejoin="miter" stroke-miterlimit="2" transform="matrix(0.992,0,0,0.992,8,17.852)"
>
</g>

<g fill="#000000" fill-opacity="1" stroke="#000000" stroke-opacity="1" stroke-width="1" stroke-linecap="square" stroke-linejoin="miter" stroke-miterlimit="2" transform="matrix(0.992,0,0,0.992,8,17.852)"
>
</g>

<g fill="#000000" fill-opacity="1" stroke="#000000" stroke-opacity="1" stroke-width="1" stroke-linecap="square" stroke-linejoin="miter" stroke-miterlimit="2" transform="matrix(0.992,0,0,0.992,8,17.852)"
>
</g>

<g fill="#000000" fill-opacity="1" stroke="#000000" stroke-opacity="1" stroke-width="1" stroke-linecap="square" stroke-linejoin="miter" stroke-miterlimit="2" transform="matrix(1,0,0,1,0,0)"
>
</g>

<g fill="#000000" fill-opacity="1" stroke="#000000" stroke-opacity="1" stroke-width="1" stroke-linecap="square" stroke-linejoin="miter" stroke-miterlimit="2" transform="matrix(1,0,0,1,0,0)"
>
</g>

<g fill="#000000" fill-opacity="1" stroke="#000000" stroke-opacity="1" stroke-width="1" stroke-linecap="square" stroke-linejoin="miter" stroke-miterlimit="2" transform="matrix(1,0,0,1,0,0)"
>
</g>

<g fill="#000000" fill-opacity="1" stroke="#000000" stroke-opacity="1" stroke-width="1" stroke-linecap="square" stroke-linejoin="miter" stroke-miterlimit="2" transform="matrix(1,0,0,1,0,0)"
>
</g>

<g fill="#000000" fill-opacity="1" stroke="#000000" stroke-opacity="1" stroke-width="1" stroke-linecap="square" stroke-linejoin="miter" stroke-miterlimit="2" transform="matrix(0.992,0,0,0.992,8,17.852)"
>
</g>

<g fill="#000000" fill-opacity="1" stroke="#000000" stroke-opacity="1" stroke-width="1" stroke-linecap="square" stroke-linejoin="miter" stroke-miterlimit="2" transform="matrix(0.992,0,0,0.992,8,17.852)"
>
</g>

<g fill="#000000" fill-opacity="1" stroke="#000000" stroke-opacity="1" stroke-width="1" stroke-linecap="square" stroke-linejoin="miter" stroke-miterlimit="2" transform="matrix(0.992,0,0,0.992,8,17.852)"
>
</g>

<g fill="#000000" fill-opacity="1" stroke="#000000" stroke-opacity="1" stroke-width="1" stroke-linecap="square" stroke-linejoin="miter" stroke-miterlimit="2" transform="matrix(0.992,0,0,0.992,8,17.852)"
>
</g>

<g fill="#000000" fill-opacity="1" stroke="#000000" stroke-opacity="1" stroke-width="1" stroke-linecap="square" stroke-linejoin="miter" stroke-miterlimit="2" transform="matrix(0.992,0,0,0.992,8,17.852)"
>
</g>

<g fill="#000000" fill-opacity="1" stroke="#000000" stroke-opacity="1" stroke-width="1" stroke-linecap="square" stroke-linejoin="miter" stroke-miterlimit="2" transform="matrix(0.992,0,0,0.992,8,17.852)"
>
</g>

<g fill="#000000" fill-opacity="1" stroke="#000000" stroke-opacity="1" stroke-width="1" stroke-linecap="square" stroke-linejoin="miter" stroke-miterlimit="2" transform="matrix(0.992,0,0,0.992,8,17.852)"
>
</g>

<g fill="#000000" fill-opacity="1" stroke="#000000" stroke-opacity="1" stroke-width="1" stroke-linecap="square" stroke-linejoin="miter" stroke-miterlimit="2" transform="matrix(0.992,0,0,0.992,8,17.852)"
>
</g>

<g fill="#000000" fill-opacity="1" stroke="#000000" stroke-opacity="1" stroke-width="1" stroke-linecap="square" stroke-linejoin="miter" stroke-miterlimit="2" transform="matrix(0.992,0,0,0.992,8,17.852)"
>
</g>

<g fill="#000000" fill-opacity="1" stroke="#000000" stroke-opacity="1" stroke-width="1" stroke-linecap="square" stroke-linejoin="miter" stroke-miterlimit="2" transform="matrix(0.992,0,0,0.992,8,17.852)"
>
</g>

<g fill="#000000" fill-opacity="1" stroke="#000000" stroke-opacity="1" stroke-width="1" stroke-linecap="square" stroke-linejoin="miter" stroke-miterlimit="2" transform="matrix(0.992,0,0,0.992,8,17.852)"
>
</g>

<g fill="#000000" fill-opacity="1" stroke="#000000" stroke-opacity="1" stroke-width="1" stroke-linecap="square" stroke-linejoin="miter" stroke-miterlimit="2" transform="matrix(0.992,0,0,0.992,8,17.852)"
>
</g>

<g fill="#000000" fill-opacity="1" stroke="#000000" stroke-opacity="1" stroke-width="1" stroke-linecap="square" stroke-linejoin="miter" stroke-miterlimit="2" transform="matrix(0.992,0,0,0.992,8,17.852)"
>
</g>

<g fill="#000000" fill-opacity="1" stroke="#000000" stroke-opacity="1" stroke-width="1" stroke-linecap="square" stroke-linejoin="miter" stroke-miterlimit="2" transform="matrix(1,0,0,1,0,0)"
>
</g>

<g fill="#000000" fill-opacity="1" stroke="#000000" stroke-opacity="1" stroke-width="1" stroke-linecap="square" stroke-linejoin="miter" stroke-miterlimit="2" transform="matrix(1,0,0,1,0,0)"
>
</g>

<g fill="#000000" fill-opacity="1" stroke="#000000" stroke-opacity="1" stroke-width="1" stroke-linecap="square" stroke-linejoin="miter" stroke-miterlimit="2" transform="matrix(1,0,0,1,0,0)"
>
</g>

<g fill="#000000" fill-opacity="1" stroke="#000000" stroke-opacity="1" stroke-width="1" stroke-linecap="square" stroke-linejoin="miter" stroke-miterlimit="2" transform="matrix(1,0,0,1,0,0)"
>
</g>

<g fill="#000000" fill-opacity="1" stroke="#000000" stroke-opacity="1" stroke-width="1" stroke-linecap="square" stroke-linejoin="miter" stroke-miterlimit="2" transform="matrix(1,0,0,1,0,0)"
>
</g>

<g fill="#000000" fill-opacity="1" stroke="#000000" stroke-opacity="1" stroke-width="1" stroke-linecap="square" stroke-linejoin="miter" stroke-miterlimit="2" transform="matrix(1,0,0,1,0,0)"
>
</g>
</g>
</svg>
