<?xml version="1.0" encoding="utf-8"?>
<!-- Generator: Adobe Illustrator 23.0.1, SVG Export Plug-In . SVG Version: 6.00 Build 0)  -->
<svg version="1.1" id="Layer_1" xmlns="http://www.w3.org/2000/svg" xmlns:xlink="http://www.w3.org/1999/xlink" x="0px" y="0px"
	 viewBox="0 0 2000 2463" style="enable-background:new 0 0 2000 2463;" xml:space="preserve">
<style type="text/css">
	.st0{clip-path:url(#SVGID_2_);}
	.st1{clip-path:url(#SVGID_4_);}
</style>
<polygon points="1166,197.2 1000,26.1 834,197.2 1000,358.2 "/>
<g>
	<defs>
		<rect id="SVGID_1_" y="0" width="2000" height="2000"/>
	</defs>
	<clipPath id="SVGID_2_">
		<use xlink:href="#SVGID_1_"  style="overflow:visible;"/>
	</clipPath>
	<path class="st0" d="M902.7,325.1v1331c0,9.4,0,18.5,0.1,27.3l-0.1,0c0,142.6-115.2,200.6-115.2,200.6l73,87.7
		c204-62.3,236.9-189,236.9-189v-126.7v-15.4V325.1l-97.3,94.7L902.7,325.1z"/>
	<path class="st0" d="M1981.8,988.5c-1.2-10.3-10.2-15.2-18.5-19.6c-11.3-6-22.1-13.5-29-24.5c-5.9-9.3-9.6-18.3-18-25.8
		c-9.5-8.5-19-17-28.6-25.4c-19.2-16.8-38.5-33.5-57.9-50.1c-15.8-13.4-31.7-26.8-47.7-40c-13.5-11.2-28.8-21.4-37.1-37.2
		c-8.5-16-6.5-35.6-17.9-50.7c-9.6-12.8-25.6-22.3-41.3-25.5c-15.7-3.2-27.9-6.2-40.7-16.6c-8.9-7.2-17.7-14.6-26.3-22.2
		c-16.9-14.8-33.4-30.1-49.9-45.5c40.7-10.2,72.7-34.9,71.6-80c-0.4-16.3-6-32.3-16.2-45c-9.5-11.9-24.7-25.7-40.7-26.3
		c11.9,17.8,10.7,42.8,0,60.9c-12,20.2-37.7,32-61.1,29.6c21.7-36.3,20.2-85.2-3.8-120.1c-24-34.9-70.7-48.3-113-48.3
		c0,0-2.5-42.2-52.6-68.7c-43.2-22.9-87-7.5-87-7.5l-69.5-71.1l-54.9,53l0,135.4c89.1-104.9,178.3-57.3,178.3-57.3
		s-108.4-4.7-178.3,113.1l0,105.9c35-42.4,101-96,172.5-96c138.5,0,168.9,105.7,168.9,105.7c-24.7-22.9-43.1-40-72.5-52.1
		c-54.2-22.4-94.8-26.3-144.4-3.2c-46.8,21.8-80,53.1-124.5,112.9l0,109.1c30.1-35.4,73.9-70.1,113.4-82.4
		c66.5-20.6,138.5-4.9,184.1,45.9c-26.6-10.3-40.4-14.2-63.5-18c-85.2-14.1-154.1,15-218.2,105.2c-5.3,7.5-12.5,18.9-15.8,27.5
		v849.3c0,0-2.9,62.1,53,62.1c-14.4-16.4-18.8-40.8-17.1-62.2c1.8-22.8,13.2-44.6,27.5-62.7c9.4-11.9,20.3-22.7,33.4-30.2
		c13.1-7.5,28.6-11.5,43.5-9.3c4.1,0.6,8.1,1.7,11.9,3.3c17.7,7.7,28.2,27.9,27,47.2c-1.2,19.3-11.6,37.2-27,48.8
		c32.9-7.4,63.4-26.5,82.4-54.3c19-27.8,25.7-64.3,15.4-96.3c-5-15.6-26.6-50.7-9.4-64.5c6.7-5.4,15.9-6.9,24.3-5.3
		c8.4,1.7,16,6.2,22.5,11.9c22.6,19.8,32.2,52.8,31.7,82.9c19.5-22.7,28-54.3,22.5-83.7c-3.4-18.5-12-35.4-21.4-51.5
		c-8.7-14.8-15.4-30.8-18.3-48c-1.8-10.8-1.7-21.8-1.3-32.7c0.5-12.2,9-75.7,34.3-61.5c7.8,4.4,15.4,9.4,22.9,14.4
		c14.6,9.9,28.6,20.6,42.2,31.8c-5.5,30.4-27,53.3-55.4,67.3c41.8,12.3,90.1,0,122.2-29.5c3.3,20.5,2.7,33.3-6.1,51.7
		c-8.4,17.3-21.8,30.2-40.6,42.2c55.3,1.1,102.2-23.5,139.1-58.7c30.5-29.2,52.9-72.1,59.6-113.8c3.6-3.2,6.1-7.6,6.7-12.4
		c1.8-14.6-7.3-25.1-19.4-31.4c-0.6-0.3-6.5-2.4-6.6-2.6c-1.8-17.8-5.5-34-17-48.3c-10.8-13.5-25.5-22.6-42.3-26.3
		c27.9,20.2,23.8,60.4-4.2,78.2c-15.7,10-36,11.2-53.2,4.7c-9.6-3.6-22.5-10.6-23.2-22.2c-1-16.9,12.7-15.4,24.8-11.5
		c7.3,2.3,15.3,2.7,22.5,0.2c7.2-2.5,13.5-8.1,16-15.3c1.8-5.3,1.5-11.1,0.1-16.5c-5.2-19.3-26.7-32.7-46.4-28.8
		c-11.8,2.3-22,9.8-32.5,15.4c-3.1,1.6-6.6,2.3-10.1,1.8c-18.2-3-0.6-24.5,4.2-30.6c11.6-14.6,24-28.5,37.3-41.6
		c7.6-7.5,16.2-15.2,26.8-16.8c15-2.3,30.3,7.3,42.7,14.4c25.5,14.6,49.6,30.9,75.1,45.1c6.1,27.2,3.2,56.5-8.8,81.7
		c28.7-8.4,53.1-29.4,66.9-55.8c16.6,5.1,33.8,7.4,51.5,3.7c23.5-5,46.2-19.2,57.2-41.2c10.9-21.9,9.1-49.1,0.1-71.4
		c-6.9-17.2-18.7-32.1-32.7-44.2c-8.9-7.6-18.8-14.2-26.6-23c-11.7-13.3-19.5-45.4,8.4-33.2c16.5,7.2,28,23.5,39.6,36.6
		c16,18,27.9,39.5,36.9,61.6c8.6-7,15-18.2,19.4-28.2C1978.6,1014.5,1983.1,1000,1981.8,988.5 M1178.2,1605.7v-70.9
		c46.7-89.7,123.5-95.6,123.5-95.6C1208.8,1495.1,1178.2,1605.7,1178.2,1605.7 M1178.2,1466.1v-77.8
		c74.6-98.8,149.2-87.5,149.2-87.5C1218,1346.9,1178.2,1466.1,1178.2,1466.1 M1674.3,801.4l-54.9-3.3
		c-37.9-72.3-99.3-83.8-99.3-83.8C1603.1,698.4,1646.1,763.4,1674.3,801.4 M1622.9,926c-41.7-54.4-81.1-92.9-81.1-92.9
		c83,9.8,134.6,10.8,134.6,10.8C1667.8,906.7,1622.9,926,1622.9,926"/>
	<path class="st0" d="M26,1024.8c4.4,10,10.8,21.2,19.4,28.2c9-22.2,20.9-43.7,36.9-61.6c11.6-13,23.1-29.4,39.6-36.6
		c27.9-12.1,20.1,19.9,8.4,33.2c-7.7,8.8-17.7,15.3-26.6,23c-14.1,12-25.8,27-32.7,44.2c-8.9,22.2-10.8,49.5,0.1,71.4
		c11,22,33.6,36.2,57.2,41.2c17.7,3.7,34.8,1.4,51.5-3.7c13.9,26.4,38.3,47.3,66.9,55.8c-12-25.2-14.9-54.5-8.8-81.7
		c25.5-14.2,49.7-30.5,75.1-45.1c12.4-7.1,27.7-16.7,42.7-14.4c10.6,1.6,19.2,9.2,26.8,16.8c13.3,13.1,25.7,27,37.3,41.6
		c4.8,6.1,22.4,27.6,4.2,30.6c-3.5,0.6-7-0.1-10.1-1.8c-10.5-5.6-20.7-13.1-32.5-15.4c-19.6-3.9-41.1,9.5-46.4,28.8
		c-1.5,5.4-1.7,11.2,0.1,16.5c2.5,7.2,8.8,12.8,16,15.3c7.2,2.5,15.2,2.1,22.5-0.2c12.1-3.9,25.8-5.4,24.8,11.5
		c-0.7,11.6-13.6,18.6-23.2,22.2c-17.2,6.5-37.5,5.2-53.2-4.7c-28-17.7-32-58-4.2-78.2c-16.9,3.7-31.6,12.8-42.3,26.3
		c-11.5,14.4-15.2,30.5-17,48.3c0,0.2-5.9,2.3-6.6,2.6c-12.1,6.4-21.2,16.9-19.4,31.4c0.6,4.8,3.1,9.1,6.7,12.4
		c6.7,41.7,29.1,84.6,59.6,113.8c36.8,35.2,83.7,59.8,139.1,58.7c-18.8-12-32.2-24.9-40.5-42.2c-8.9-18.4-9.4-31.2-6.1-51.7
		c32.1,29.5,80.3,41.8,122.2,29.5c-28.4-14.1-49.9-37-55.4-67.3c13.6-11.2,27.6-22,42.2-31.8c7.5-5,15-10,22.9-14.4
		c25.3-14.2,33.8,49.3,34.3,61.5c0.4,10.9,0.5,22-1.3,32.7c-2.8,17.1-9.6,33.2-18.3,48c-9.4,16.1-17.9,33-21.4,51.5
		c-5.5,29.4,3.1,61,22.5,83.7c-0.5-30.1,9.1-63,31.7-82.9c6.4-5.6,14-10.2,22.5-11.9c8.4-1.7,17.7-0.1,24.3,5.3
		c17.1,13.8-4.4,48.9-9.4,64.5c-10.3,32.1-3.6,68.5,15.4,96.3c19,27.8,49.5,46.9,82.4,54.3c-15.4-11.6-25.8-29.5-27-48.8
		c-1.2-19.3,9.3-39.5,27-47.2c3.8-1.6,7.8-2.7,11.9-3.3c15-2.2,30.4,1.8,43.5,9.3c13.1,7.5,24.1,18.4,33.4,30.2
		c14.3,18.1,25.7,39.9,27.5,62.7c1.7,21.4-2.7,45.8-17.1,62.2c55.8,0,53-62.1,53-62.1V833.8c-3.3-8.6-10.5-20-15.8-27.5
		c-64.1-90.2-133-119.4-218.2-105.2c-23.1,3.8-36.9,7.7-63.5,18c45.6-50.7,117.7-66.5,184.1-45.9c39.6,12.3,83.3,47,113.4,82.4
		l0-109.1c-44.6-59.8-77.8-91.1-124.5-112.9c-49.6-23.1-90.2-19.1-144.4,3.2c-29.4,12.1-47.8,29.2-72.5,52.1
		c0,0,30.4-105.7,168.9-105.7c71.5,0,137.5,53.7,172.5,96l0-105.9C788.5,355.5,680,360.2,680,360.2s89.1-47.6,178.3,57.3l0-135.4
		l-54.9-53l-69.5,71.1c0,0-43.7-15.3-87,7.5c-50.1,26.5-52.6,68.7-52.6,68.7c-42.3,0-89,13.4-113,48.3c-24,34.9-25.5,83.8-3.8,120.1
		c-23.4,2.4-49.1-9.4-61.1-29.6c-10.8-18.1-11.9-43,0-60.9c-16,0.6-31.3,14.4-40.7,26.3c-10.2,12.8-15.8,28.7-16.2,45
		c-1.1,45.1,30.9,69.8,71.6,80c-16.4,15.4-32.9,30.7-49.9,45.5c-8.6,7.6-17.4,15-26.3,22.2c-12.8,10.4-25.1,13.4-40.7,16.6
		c-15.6,3.2-31.6,12.6-41.3,25.5c-11.4,15.1-9.4,34.7-17.9,50.7c-8.4,15.8-23.7,26.1-37.1,37.2c-16,13.2-31.9,26.6-47.7,40
		c-19.4,16.5-38.7,33.2-57.9,50.1c-9.6,8.4-19.1,16.9-28.6,25.4c-8.3,7.5-12.1,16.5-18,25.8c-6.9,10.9-17.8,18.5-29,24.5
		c-8.2,4.4-17.3,9.2-18.5,19.6C16.9,1000,21.4,1014.5,26,1024.8 M698.3,1439.3c0,0,76.8,5.9,123.5,95.6v70.9
		C821.8,1605.7,791.2,1495.1,698.3,1439.3 M672.5,1300.8c0,0,74.6-11.3,149.2,87.5v77.8C821.8,1466.1,782,1346.9,672.5,1300.8
		 M479.9,714.2c0,0-61.3,11.5-99.3,83.8l-54.9,3.3C353.9,763.4,396.9,698.4,479.9,714.2 M323.5,843.8c0,0,51.6-1,134.6-10.8
		c0,0-39.4,38.6-81.1,92.9C377.1,926,332.2,906.7,323.5,843.8"/>
</g>
<g>
	<defs>
		<rect id="SVGID_3_" width="2000" height="2463"/>
	</defs>
	<clipPath id="SVGID_4_">
		<use xlink:href="#SVGID_3_"  style="overflow:visible;"/>
	</clipPath>
	<path class="st1" d="M489.9,2181.8h34.2v183.5c0,49.9-20.8,74.8-62.3,74.8c-14.4,0-28.6-3.7-42.6-11.2l16.9-27.9
		c11,3.8,20,5.7,26.9,5.7c17.9,0,26.9-12,26.9-36.1V2181.8z"/>
	<path class="st1" d="M576,2305c0-36.1,13.6-67.1,40.9-92.8c27.2-25.8,60-38.7,98.2-38.7c37.3,0,69.5,13,96.5,39
		c27,26,40.5,56.8,40.5,92.6c0,37.8-13.3,69.8-40,95.9c-26.7,26.1-59.4,39.2-98.1,39.2c-38.2,0-70.8-13.1-97.6-39.5
		C589.4,2374.3,576,2342.5,576,2305 M815.6,2306.6c0-27.6-10-50.9-29.9-69.8c-19.9-18.9-44.4-28.4-73.5-28.4
		c-27.6,0-51.3,9.6-71,28.8c-19.7,19.2-29.6,42.3-29.6,69.3c0,27.3,10.1,50.5,30.3,69.4c20.2,18.9,45,28.4,74.4,28.4
		c27,0,50.3-9.6,69.8-28.9C805.8,2356.1,815.6,2333.2,815.6,2306.6"/>
	<polygon class="st1" points="867.7,2181.8 903.8,2181.8 982.4,2359 1061.5,2181.8 1097.9,2181.8 981.9,2440.1 	"/>
	<path class="st1" d="M1196.8,2171.7l-117.2,259.9h35.5l28.7-64h30.2l23.2,50.6l23.2-50.6h29.6l29,64h35.8L1196.8,2171.7z
		 M1228.7,2339.1l-1.9,4.2h0.1l-11.1,24.2l-5.1,11l-13.4,29.4l-9.1-19.8l-9.4-20.6l-11.1-24.2l-1.9-4.2h-9.1l4.5-10.1l35.5-79.2
		l36.3,80l4.2,9.3H1228.7z"/>
	<path class="st1" d="M1351.7,2181.4h54.2c27,0,48.9,6.7,65.9,20.1c17,13.4,25.4,30.6,25.4,51.6c0,16.8-5.5,31.6-16.5,44.4
		c-11,12.8-28.1,21.9-51.3,27.1l72.7,107.1H1463l-69.4-102.9h-7.7v102.9h-34.2V2181.4z M1385.9,2211.6v87.2
		c50.4,1,75.6-13.6,75.6-43.8c0-10.6-2.9-19.3-8.8-26c-5.9-6.7-13.8-11.3-23.6-13.8C1419.3,2212.8,1404.9,2211.6,1385.9,2211.6"/>
	<rect x="1547" y="2181.4" class="st1" width="33.8" height="250.3"/>
</g>
</svg>
